<svg width="50" height="50" viewBox="0 0 50 50" fill="none" xmlns="http://www.w3.org/2000/svg">
<rect width="50" height="50" rx="25" fill="white"/>
<path d="M33.07 19.35H28V20.76H33.09L33.07 19.35ZM32 29.05C31.6154 29.3049 31.1612 29.4342 30.7 29.42C30.3947 29.4519 30.0862 29.4203 29.7937 29.3274C29.5011 29.2345 29.2309 29.0822 29 28.88C28.573 28.3959 28.3507 27.7649 28.38 27.12H35C35.0477 26.4486 34.9904 25.7738 34.83 25.12C34.6749 24.4981 34.4034 23.9111 34.03 23.39C33.6541 22.8846 33.1686 22.471 32.61 22.18C31.9884 21.8736 31.3029 21.7193 30.61 21.73C29.9583 21.7253 29.3123 21.8511 28.71 22.1C28.1585 22.3325 27.6588 22.6725 27.24 23.1C26.8224 23.5362 26.499 24.0536 26.29 24.62C26.0657 25.2316 25.9539 25.8787 25.96 26.53C25.9497 27.1906 26.0581 27.8477 26.28 28.47C26.4685 29.0336 26.7677 29.5538 27.16 30C27.5659 30.4382 28.0648 30.7799 28.62 31C29.2391 31.2359 29.8976 31.3513 30.56 31.34C31.4894 31.369 32.407 31.1257 33.2 30.64C34.0009 30.0709 34.5775 29.2396 34.83 28.29H32.62C32.5017 28.6042 32.284 28.871 32 29.05ZM28.57 24.93C28.6478 24.6807 28.777 24.4505 28.9493 24.2541C29.1215 24.0578 29.3329 23.8997 29.57 23.79C29.884 23.6487 30.2258 23.5803 30.57 23.59C30.8186 23.5688 31.0689 23.6016 31.3036 23.6862C31.5384 23.7708 31.7521 23.9051 31.93 24.08C32.2698 24.496 32.4878 24.9978 32.56 25.53H28.41C28.4262 25.3268 28.463 25.1258 28.52 24.93H28.57ZM23.28 24.45C23.789 24.2381 24.2312 23.8926 24.56 23.45C24.8622 22.98 25.0124 22.4284 24.99 21.87C25.0096 21.3609 24.9103 20.8541 24.7 20.39C24.5233 19.988 24.2397 19.6421 23.88 19.39C23.4987 19.128 23.0656 18.9507 22.61 18.87C22.0708 18.757 21.5209 18.7033 20.97 18.71H15V31.29H21.1C21.6567 31.2904 22.2112 31.2199 22.75 31.08C23.2607 30.9479 23.7446 30.728 24.18 30.43C24.6017 30.1378 24.9452 29.7463 25.18 29.29C25.4399 28.7798 25.5672 28.2124 25.55 27.64C25.5689 26.9308 25.37 26.2328 24.98 25.64C24.5606 25.044 23.9385 24.621 23.23 24.45H23.28ZM17.77 20.86H20.36C20.5979 20.8597 20.8355 20.8798 21.07 20.92C21.2859 20.952 21.4933 21.0268 21.68 21.14C21.8603 21.2421 22.0065 21.3951 22.1 21.58C22.2158 21.8018 22.271 22.0501 22.26 22.3C22.2786 22.5153 22.2457 22.7319 22.164 22.9318C22.0823 23.1318 21.9541 23.3095 21.79 23.45C21.4321 23.6961 21.0039 23.8189 20.57 23.8H17.77V20.86ZM22.61 28.3C22.5073 28.5038 22.3519 28.6765 22.16 28.8C21.9603 28.9242 21.7403 29.0123 21.51 29.06C21.2541 29.1173 20.9922 29.1442 20.73 29.14H17.73V25.69H20.73C21.2448 25.6675 21.7532 25.8112 22.18 26.1C22.3728 26.2731 22.5222 26.4891 22.616 26.7306C22.7098 26.972 22.7454 27.2322 22.72 27.49C22.747 27.7649 22.7094 28.0423 22.61 28.3Z" fill="#17191C"/>
</svg>
