<svg width="50" height="50" viewBox="0 0 50 50" fill="none" xmlns="http://www.w3.org/2000/svg">
<rect width="50" height="50" rx="25" fill="white"/>
<path d="M25 13C27.3734 13 29.6934 13.7038 31.6668 15.0224C33.6402 16.3409 35.1783 18.2151 36.0866 20.4078C36.9948 22.6005 37.2324 25.0133 36.7694 27.3411C36.3064 29.6688 35.1635 31.807 33.4853 33.4853C31.807 35.1635 29.6688 36.3064 27.3411 36.7695C25.0133 37.2324 22.6005 36.9948 20.4078 36.0865C18.2151 35.1783 16.3409 33.6402 15.0224 31.6668C13.7038 29.6934 13 27.3733 13 25C13 23.4241 13.3104 21.8637 13.9134 20.4078C14.5164 18.9519 15.4004 17.629 16.5147 16.5147C17.629 15.4004 18.9519 14.5166 20.4078 13.9134C21.8637 13.3104 23.4242 13 25 13ZM25 15.4C22.5344 15.399 20.1642 16.3539 18.388 18.064C20.2216 19.1394 22.1645 20.0164 24.184 20.68C25.189 18.9482 26.3412 17.3061 27.628 15.772C26.7736 15.526 25.8891 15.4008 25 15.4ZM29.932 16.78C28.6748 18.2182 27.5464 19.7642 26.56 21.4C28.9155 21.9849 31.333 22.2831 33.76 22.288H34.192C33.5114 19.9835 31.9913 18.0182 29.932 16.78ZM32.2 31.372C33.7614 29.6185 34.6167 27.3479 34.6 25C34.6 24.88 34.6 24.76 34.6 24.652H33.784C30.9431 24.6265 28.1183 24.223 25.384 23.452C25 24.184 24.64 24.94 24.292 25.72C26.1622 26.3793 27.904 27.3577 29.44 28.612L29.8 28.9C30.6555 29.6682 31.4573 30.4942 32.2 31.372ZM25 34.6C26.9127 34.6042 28.7822 34.0313 30.364 32.956C29.7798 32.2859 29.1546 31.6527 28.492 31.06L28.108 30.736C26.6882 29.5419 25.0612 28.6186 23.308 28.012C22.5864 29.9632 22.0246 31.9698 21.628 34.012C22.7082 34.4064 23.85 34.6055 25 34.6ZM19.444 32.812C19.8366 30.9959 20.3498 29.2079 20.98 27.46H20.572C20.5247 27.4483 20.4753 27.4483 20.428 27.46H20.296H20.176H19.6C18.3371 27.4636 17.0838 27.6786 15.892 28.096C16.5468 30.0045 17.7905 31.6557 19.444 32.812ZM19.6 25C19.852 25 20.104 25 20.344 25C20.4994 24.9804 20.6566 24.9804 20.812 25C21.1382 25.02 21.4628 25.0601 21.784 25.12H21.904C22.252 24.316 22.612 23.536 23.008 22.72C20.8593 21.9821 18.7955 21.0166 16.852 19.84C15.8879 21.3873 15.3843 23.1771 15.4 25C15.4 25.204 15.4 25.408 15.4 25.612C16.76 25.1922 18.1768 24.9858 19.6 25Z" fill="#17191C"/>
</svg>
