<svg width="50" height="50" viewBox="0 0 50 50" fill="none" xmlns="http://www.w3.org/2000/svg">
<rect width="50" height="50" rx="25" fill="white"/>
<path d="M23.653 13.0821C18.1218 13.6752 13.6727 18.0644 13.0715 23.4025C12.4703 28.9779 15.7169 33.9601 20.6469 35.8581C21.0076 35.9767 21.3683 35.7395 21.3683 35.265V33.367C21.3683 33.367 20.8874 33.4856 20.2861 33.4856C18.6027 33.4856 17.8813 32.0621 17.761 31.2317C17.6408 30.7572 17.4003 30.4014 17.0396 30.0455C16.6788 29.9269 16.5586 29.9269 16.5586 29.8082C16.5586 29.571 16.9193 29.571 17.0396 29.571C17.761 29.571 18.3622 30.4014 18.6027 30.7572C19.2039 31.7062 19.9254 31.9435 20.2861 31.9435C20.7671 31.9435 21.1278 31.8249 21.3683 31.7062C21.4886 30.8759 21.8493 30.0455 22.5708 29.571C19.8052 28.9779 17.761 27.4357 17.761 24.826C17.761 23.5211 18.3622 22.2162 19.2039 21.2672C19.0837 21.03 18.9635 20.4369 18.9635 19.6065C18.9635 19.132 18.9635 18.5389 19.2039 18.0644C19.2039 17.8271 19.4444 17.7085 19.5647 17.7085H19.6849C20.2861 17.8271 21.4886 18.183 22.5708 19.2506C23.2922 19.0134 24.1339 18.8947 24.9756 18.8947C25.8173 18.8947 26.659 19.0134 27.3805 19.2506C28.4627 18.183 29.7854 17.8271 30.3866 17.7085H30.5068C30.7473 17.7085 30.8676 17.8271 30.9878 18.0644C30.9878 18.5389 30.9878 19.132 30.9878 19.6065C30.9878 20.5555 30.8676 21.03 30.7473 21.2672C31.589 22.2162 32.1903 23.4025 32.1903 24.826C32.1903 27.4357 30.1461 28.9779 27.3805 29.571C28.102 30.1641 28.5829 31.2317 28.5829 32.2994V35.3836C28.5829 35.7395 28.9437 36.0954 29.4247 35.9767C33.8737 34.1974 37 29.9269 37 24.9446C37 17.8271 30.8676 12.2517 23.653 13.0821Z" fill="black"/>
</svg>
