<svg width="50" height="50" viewBox="0 0 50 50" fill="none" xmlns="http://www.w3.org/2000/svg">
<rect width="50" height="50" rx="25" fill="white"/>
<g clip-path="url(#clip0_160_303)">
<path d="M35.625 25C35.625 30.875 30.875 35.625 25 35.625C19.125 35.625 14.375 30.875 14.375 25C14.375 19.125 19.125 14.375 25 14.375C30.875 14.375 35.625 19.125 35.625 25Z" fill="white"/>
<path d="M23.125 35.625V32.1875C23.125 32 23.25 31.875 23.4375 31.875C23.625 31.875 23.75 32 23.75 32.1875V35.625H25V31.5625C25 31.375 25.125 31.25 25.3125 31.25C25.5 31.25 25.625 31.375 25.625 31.5625V35.625H26.875V32.1875C26.875 32 27 31.875 27.1875 31.875C27.375 31.875 27.5 32 27.5 32.1875V35.625H28.625C28.75 35.4375 28.75 35.25 28.75 34.9375V32.5C28.75 31.125 27.5625 29.25 26.0625 29.25H24.5C23.0625 29.25 21.8125 31.1875 21.8125 32.5V34.9375C21.8125 35.1875 21.875 35.4375 21.9375 35.625H23.125ZM35.0625 26.5C35.0625 26.5 34.25 26.25 33.5625 26.25H33.5C32.8125 26.25 31.6875 26.4375 31.6875 26.4375C31.625 26.4375 31.625 26.4375 31.625 26.375C31.625 26.3125 31.625 26.3125 31.6875 26.3125C31.75 26.3125 32.9375 26.125 33.625 26.125C34.3125 26.125 35.125 26.375 35.1875 26.375C35.25 26.375 35.25 26.4375 35.25 26.5C35.125 26.4375 35.125 26.5 35.0625 26.5ZM34.875 27C34.875 27 34 26.75 33.25 26.75C32.6875 26.75 31.375 26.875 31.3125 26.875C31.25 26.875 31.25 26.875 31.25 26.8125C31.25 26.75 31.25 26.75 31.3125 26.75C31.375 26.75 32.6875 26.625 33.25 26.625C34.0625 26.625 34.875 26.875 34.875 26.875C34.9375 26.875 34.9375 26.9375 34.9375 27C34.9375 26.9375 34.9375 27 34.875 27ZM14.875 26.5C14.8125 26.5 14.8125 26.5 14.8125 26.4375C14.8125 26.375 14.8125 26.375 14.875 26.3125C15.375 26.1875 16.375 26 16.9375 26C17.4375 26 19.125 26.125 19.1875 26.125C19.25 26.125 19.25 26.1875 19.25 26.1875C19.25 26.25 19.1875 26.25 19.1875 26.25C19.1875 26.25 17.5 26.125 17 26.125C16.3125 26.25 15.375 26.375 14.875 26.5ZM15.125 27.4375C15.125 27.4375 15.0625 27.4375 15.0625 27.375C15.0625 27.3125 15.0625 27.3125 15.0625 27.25C15.125 27.25 15.9375 26.75 16.875 26.625C17.6875 26.5 19.375 26.6875 19.5 26.6875C19.5625 26.6875 19.5625 26.75 19.5625 26.75C19.5625 26.8125 19.5 26.8125 19.5 26.8125C19.5 26.8125 17.75 26.625 16.9375 26.75C16 26.9375 15.125 27.4375 15.125 27.4375Z" fill="#455A64"/>
<path d="M18.875 24.6875C18.875 21.9375 21.75 19.375 25.3125 19.375C28.875 19.375 31.75 21.875 31.75 24.6875C31.75 27.5 29.6875 29.375 25.3125 29.375C20.9375 29.375 18.875 27.4375 18.875 24.6875Z" fill="#455A64"/>
<path d="M27.8752 20.1875C27.8752 20.1875 28.9377 18.75 30.8752 18.75C31.6252 19.5 31.1252 21.75 30.8752 22.375L27.8752 20.1875ZM22.7502 20.1875C22.7502 20.1875 21.6877 18.75 19.7502 18.75C19.0002 19.5 19.5002 21.75 19.7502 22.375L22.7502 20.1875ZM22.5627 32.4375C22.5627 32.4375 21.1252 32.4375 20.8127 32.4375C20.0627 32.4375 19.3752 32.125 19.0627 31.5C18.6877 30.8125 18.3752 30.0625 17.4377 29.4375C17.2502 29.3125 17.3752 29.1875 17.6877 29.1875C18.0002 29.25 18.5627 29.3125 19.0002 29.875C19.4377 30.4375 19.9377 31.125 20.7502 31.125C21.5627 31.125 22.4377 31.125 22.9377 30.5625L22.5627 32.4375Z" fill="#455A64"/>
<path d="M25 12.5C18.125 12.5 12.5 18.125 12.5 25C12.5 31.875 18.125 37.5 25 37.5C31.875 37.5 37.5 31.875 37.5 25C37.5 18.125 31.875 12.5 25 12.5ZM25 35C19.5 35 15 30.5 15 25C15 19.5 19.5 15 25 15C30.5 15 35 19.5 35 25C35 30.5 30.5 35 25 35Z" fill="#00BCD4"/>
</g>
<defs>
<clipPath id="clip0_160_303">
<rect width="30" height="30" fill="white" transform="translate(10 10)"/>
</clipPath>
</defs>
</svg>
