<svg width="50" height="50" viewBox="0 0 50 50" fill="none" xmlns="http://www.w3.org/2000/svg">
<rect width="50" height="50" rx="25" fill="black"/>
<path d="M23.653 13.0857C18.1218 13.7046 13.6727 18.2845 13.0715 23.8548C12.4703 29.6725 15.7169 34.8714 20.6469 36.8519C21.0076 36.9757 21.3683 36.7282 21.3683 36.233V34.2525C21.3683 34.2525 20.8874 34.3763 20.2861 34.3763C18.6027 34.3763 17.8813 32.8909 17.761 32.0244C17.6408 31.5293 17.4003 31.1579 17.0396 30.7866C16.6788 30.6628 16.5586 30.6628 16.5586 30.539C16.5586 30.2915 16.9193 30.2915 17.0396 30.2915C17.761 30.2915 18.3622 31.1579 18.6027 31.5293C19.2039 32.5195 19.9254 32.7671 20.2861 32.7671C20.7671 32.7671 21.1278 32.6433 21.3683 32.5195C21.4886 31.6531 21.8493 30.7866 22.5708 30.2915C19.8052 29.6725 17.761 28.0634 17.761 25.3402C17.761 23.9785 18.3622 22.6169 19.2039 21.6267C19.0837 21.3791 18.9635 20.7602 18.9635 19.8937C18.9635 19.3986 18.9635 18.7797 19.2039 18.2845C19.2039 18.037 19.4444 17.9132 19.5647 17.9132H19.6849C20.2861 18.037 21.4886 18.4083 22.5708 19.5224C23.2922 19.2748 24.1339 19.151 24.9756 19.151C25.8173 19.151 26.659 19.2748 27.3805 19.5224C28.4627 18.4083 29.7854 18.037 30.3866 17.9132H30.5068C30.7473 17.9132 30.8676 18.037 30.9878 18.2845C30.9878 18.7797 30.9878 19.3986 30.9878 19.8937C30.9878 20.884 30.8676 21.3791 30.7473 21.6267C31.589 22.6169 32.1903 23.8548 32.1903 25.3402C32.1903 28.0634 30.1461 29.6725 27.3805 30.2915C28.102 30.9104 28.5829 32.0244 28.5829 33.1385V36.3568C28.5829 36.7282 28.9437 37.0995 29.4247 36.9757C33.8737 35.119 37 30.6628 37 25.4639C37 18.037 30.8676 12.2192 23.653 13.0857Z" fill="white"/>
</svg>
