<svg width="50" height="50" viewBox="0 0 50 50" fill="none" xmlns="http://www.w3.org/2000/svg">
<rect width="50" height="50" rx="25" fill="white"/>
<path d="M24.2286 15.0721C19.437 15.5929 15.5828 19.4471 15.062 24.1346C14.5411 29.0304 17.3536 33.4054 21.6245 35.0721C21.937 35.1763 22.2495 34.9679 22.2495 34.5513V32.8846C22.2495 32.8846 21.8328 32.9888 21.312 32.9888C19.8536 32.9888 19.2286 31.7388 19.1245 31.0096C19.0203 30.5929 18.812 30.2804 18.4995 29.9679C18.187 29.8638 18.0828 29.8638 18.0828 29.7596C18.0828 29.5513 18.3953 29.5513 18.4995 29.5513C19.1245 29.5513 19.6453 30.2804 19.8536 30.5929C20.3745 31.4263 20.9995 31.6346 21.312 31.6346C21.7286 31.6346 22.0411 31.5304 22.2495 31.4263C22.3536 30.6971 22.6661 29.9679 23.2911 29.5513C20.8953 29.0304 19.1245 27.6763 19.1245 25.3846C19.1245 24.2388 19.6453 23.0929 20.3745 22.2596C20.2703 22.0513 20.1661 21.5304 20.1661 20.8013C20.1661 20.3846 20.1661 19.8638 20.3745 19.4471C20.3745 19.2388 20.5828 19.1346 20.687 19.1346H20.7911C21.312 19.2388 22.3536 19.5513 23.2911 20.4888C23.9161 20.2804 24.6453 20.1763 25.3745 20.1763C26.1036 20.1763 26.8328 20.2804 27.4578 20.4888C28.3953 19.5513 29.5411 19.2388 30.062 19.1346H30.1661C30.3745 19.1346 30.4786 19.2388 30.5828 19.4471C30.5828 19.8638 30.5828 20.3846 30.5828 20.8013C30.5828 21.6346 30.4786 22.0513 30.3745 22.2596C31.1036 23.0929 31.6245 24.1346 31.6245 25.3846C31.6245 27.6763 29.8536 29.0304 27.4578 29.5513C28.0828 30.0721 28.4995 31.0096 28.4995 31.9471V34.6554C28.4995 34.9679 28.812 35.2804 29.2286 35.1763C33.0828 33.6138 35.7911 29.8638 35.7911 25.4888C35.7911 19.2388 30.4786 14.3429 24.2286 15.0721Z" fill="black"/>
</svg>
