<svg width="50" height="50" viewBox="0 0 50 50" fill="none" xmlns="http://www.w3.org/2000/svg">
<rect width="50" height="50" rx="25" fill="#0A66C2"/>
<path d="M33.4701 14.9999H16.5301C16.3396 14.9973 16.1506 15.0321 15.9736 15.1026C15.7967 15.173 15.6354 15.2776 15.4989 15.4104C15.3624 15.5432 15.2533 15.7016 15.1781 15.8765C15.1028 16.0514 15.0627 16.2395 15.0601 16.4299V33.5699C15.0627 33.7603 15.1028 33.9484 15.1781 34.1233C15.2533 34.2982 15.3624 34.4566 15.4989 34.5894C15.6354 34.7222 15.7967 34.8268 15.9736 34.8972C16.1506 34.9676 16.3396 35.0025 16.5301 34.9999H33.4701C33.6605 35.0025 33.8496 34.9676 34.0265 34.8972C34.2034 34.8268 34.3648 34.7222 34.5013 34.5894C34.6378 34.4566 34.7468 34.2982 34.8221 34.1233C34.8974 33.9484 34.9375 33.7603 34.9401 33.5699V16.4299C34.9375 16.2395 34.8974 16.0514 34.8221 15.8765C34.7468 15.7016 34.6378 15.5432 34.5013 15.4104C34.3648 15.2776 34.2034 15.173 34.0265 15.1026C33.8496 15.0321 33.6605 14.9973 33.4701 14.9999ZM21.0901 31.7399H18.0901V22.7399H21.0901V31.7399ZM19.5901 21.4799C19.1763 21.4799 18.7795 21.3155 18.487 21.023C18.1944 20.7304 18.0301 20.3336 18.0301 19.9199C18.0301 19.5062 18.1944 19.1094 18.487 18.8168C18.7795 18.5243 19.1763 18.3599 19.5901 18.3599C19.8098 18.335 20.0322 18.3567 20.2429 18.4238C20.4536 18.4908 20.6478 18.6016 20.8127 18.7489C20.9776 18.8961 21.1096 19.0766 21.1999 19.2784C21.2903 19.4802 21.337 19.6988 21.337 19.9199C21.337 20.141 21.2903 20.3596 21.1999 20.5614C21.1096 20.7632 20.9776 20.9437 20.8127 21.0909C20.6478 21.2382 20.4536 21.349 20.2429 21.416C20.0322 21.483 19.8098 21.5048 19.5901 21.4799ZM31.9101 31.7399H28.9101V26.9099C28.9101 25.6999 28.4801 24.9099 27.3901 24.9099C27.0527 24.9124 26.7242 25.0182 26.4489 25.2131C26.1735 25.408 25.9645 25.6826 25.8501 25.9999C25.7718 26.2349 25.7379 26.4825 25.7501 26.7299V31.7299H22.7501C22.7501 31.7299 22.7501 23.5499 22.7501 22.7299H25.7501V23.9999C26.0226 23.527 26.419 23.1374 26.8965 22.8731C27.374 22.6088 27.9146 22.4797 28.4601 22.4999C30.4601 22.4999 31.9101 23.7899 31.9101 26.5599V31.7399Z" fill="white"/>
</svg>
