<svg width="50" height="50" viewBox="0 0 50 50" fill="none" xmlns="http://www.w3.org/2000/svg">
<rect width="50" height="50" rx="25" fill="white"/>
<path d="M33.4696 15H16.5296C16.3391 14.9974 16.1501 15.0323 15.9731 15.1027C15.7962 15.1731 15.6349 15.2777 15.4984 15.4105C15.3619 15.5433 15.2529 15.7017 15.1776 15.8766C15.1023 16.0516 15.0622 16.2396 15.0596 16.43V33.57C15.0622 33.7604 15.1023 33.9485 15.1776 34.1234C15.2529 34.2983 15.3619 34.4567 15.4984 34.5895C15.6349 34.7223 15.7962 34.8269 15.9731 34.8973C16.1501 34.9678 16.3391 35.0027 16.5296 35H33.4696C33.66 35.0027 33.8491 34.9678 34.026 34.8973C34.2029 34.8269 34.3643 34.7223 34.5008 34.5895C34.6373 34.4567 34.7463 34.2983 34.8216 34.1234C34.8969 33.9485 34.937 33.7604 34.9396 33.57V16.43C34.937 16.2396 34.8969 16.0516 34.8216 15.8766C34.7463 15.7017 34.6373 15.5433 34.5008 15.4105C34.3643 15.2777 34.2029 15.1731 34.026 15.1027C33.8491 15.0323 33.66 14.9974 33.4696 15ZM21.0896 31.74H18.0896V22.74H21.0896V31.74ZM19.5896 21.48C19.1758 21.48 18.779 21.3157 18.4865 21.0231C18.1939 20.7305 18.0296 20.3338 18.0296 19.92C18.0296 19.5063 18.1939 19.1095 18.4865 18.8169C18.779 18.5244 19.1758 18.36 19.5896 18.36C19.8093 18.3351 20.0317 18.3569 20.2424 18.4239C20.4531 18.4909 20.6473 18.6017 20.8122 18.749C20.9771 18.8963 21.1091 19.0767 21.1994 19.2785C21.2898 19.4803 21.3365 19.6989 21.3365 19.92C21.3365 20.1411 21.2898 20.3597 21.1994 20.5615C21.1091 20.7633 20.9771 20.9438 20.8122 21.0911C20.6473 21.2383 20.4531 21.3491 20.2424 21.4161C20.0317 21.4832 19.8093 21.5049 19.5896 21.48ZM31.9096 31.74H28.9096V26.91C28.9096 25.7 28.4796 24.91 27.3896 24.91C27.0522 24.9125 26.7238 25.0183 26.4484 25.2132C26.1731 25.4081 25.9641 25.6827 25.8496 26C25.7713 26.2351 25.7374 26.4826 25.7496 26.73V31.73H22.7496C22.7496 31.73 22.7496 23.55 22.7496 22.73H25.7496V24C26.0221 23.5271 26.4185 23.1375 26.896 22.8732C27.3735 22.6089 27.9141 22.4799 28.4596 22.5C30.4596 22.5 31.9096 23.79 31.9096 26.56V31.74Z" fill="#17191C"/>
</svg>
