<svg width="134" height="52" viewBox="0 0 134 52" fill="none" xmlns="http://www.w3.org/2000/svg">
<path d="M9.83185 32.8937C8.28371 32.8937 6.89641 32.6462 5.66995 32.1509C4.44348 31.6555 3.45832 30.9228 2.71439 29.952C1.99058 28.9814 1.60857 27.8126 1.56836 26.4457H7.05725C7.13768 27.2183 7.40911 27.8126 7.87153 28.2286C8.33396 28.6248 8.93713 28.8229 9.68106 28.8229C10.4451 28.8229 11.0482 28.6545 11.4906 28.3177C11.9329 27.9612 12.1541 27.4759 12.1541 26.8617C12.1541 26.3467 11.9731 25.9208 11.6112 25.584C11.2694 25.2473 10.8371 24.9699 10.3144 24.752C9.81174 24.5341 9.08793 24.2865 8.14296 24.0092C6.77578 23.5932 5.6599 23.1772 4.79534 22.7612C3.93078 22.3452 3.18689 21.7311 2.5636 20.9189C1.94032 20.1067 1.62868 19.0469 1.62868 17.7395C1.62868 15.7981 2.34243 14.2827 3.76995 13.1932C5.19745 12.0839 7.05725 11.5292 9.34931 11.5292C11.6816 11.5292 13.5615 12.0839 14.989 13.1932C16.4165 14.2827 17.1805 15.808 17.2811 17.7692H11.7017C11.6615 17.0956 11.4101 16.5707 10.9477 16.1943C10.4853 15.7981 9.89217 15.6 9.16836 15.6C8.54507 15.6 8.04244 15.7684 7.66042 16.1052C7.2784 16.4221 7.08741 16.8876 7.08741 17.5017C7.08741 18.1753 7.40911 18.7002 8.05249 19.0766C8.69586 19.453 9.70117 19.8591 11.0684 20.2949C12.4355 20.7505 13.5414 21.1863 14.3858 21.6023C15.2504 22.0183 15.9943 22.6225 16.6176 23.4149C17.2409 24.2073 17.5525 25.2275 17.5525 26.4755C17.5525 27.664 17.2409 28.7436 16.6176 29.7143C16.0144 30.6851 15.1297 31.4577 13.9636 32.032C12.7974 32.6064 11.4202 32.8937 9.83185 32.8937Z" fill="white"/>
<path d="M9.43476 40.3202C7.9021 40.3202 6.52867 40.0751 5.31448 39.5848C4.10029 39.0945 3.12495 38.3689 2.38848 37.4079C1.67191 36.447 1.29372 35.2899 1.25391 33.9367H6.68791C6.76753 34.7016 7.03624 35.2899 7.49405 35.7017C7.95186 36.094 8.549 36.2901 9.28548 36.2901C10.0419 36.2901 10.639 36.1234 11.0769 35.79C11.5148 35.437 11.7338 34.9565 11.7338 34.3486C11.7338 33.8387 11.5546 33.417 11.1963 33.0836C10.858 32.7502 10.43 32.4757 9.91248 32.2599C9.41486 32.0442 8.69829 31.7991 7.76276 31.5245C6.40924 31.1127 5.30453 30.7008 4.44862 30.289C3.59272 29.8772 2.85624 29.2692 2.23919 28.4651C1.62214 27.6611 1.31362 26.6118 1.31362 25.3175C1.31362 23.3956 2.02024 21.8953 3.43348 20.8167C4.84672 19.7184 6.68791 19.1693 8.95705 19.1693C11.266 19.1693 13.1271 19.7184 14.5403 20.8167C15.9536 21.8953 16.71 23.4054 16.8095 25.3469H11.2859C11.2461 24.6801 10.9973 24.1604 10.5395 23.7878C10.0817 23.3956 9.49448 23.1995 8.77791 23.1995C8.16086 23.1995 7.66324 23.3662 7.28505 23.6996C6.90686 24.0133 6.71776 24.4742 6.71776 25.0822C6.71776 25.7489 7.03624 26.2686 7.67319 26.6413C8.31014 27.0139 9.30538 27.4159 10.6589 27.8474C12.0124 28.2984 13.1072 28.7299 13.9432 29.1417C14.7991 29.5536 15.5356 30.1517 16.1526 30.9362C16.7697 31.7206 17.0782 32.7306 17.0782 33.9661C17.0782 35.1428 16.7697 36.2116 16.1526 37.1726C15.5555 38.1336 14.6797 38.8984 13.5252 39.4671C12.3707 40.0359 11.0072 40.3202 9.43476 40.3202Z" fill="white"/>
<path d="M28.056 32.112C27.2347 32.112 26.4987 31.9787 25.848 31.712C25.1973 31.4453 24.6747 31.0507 24.28 30.528C23.896 30.0053 23.6933 29.376 23.672 28.64H26.584C26.6267 29.056 26.7707 29.376 27.016 29.6C27.2613 29.8133 27.5813 29.92 27.976 29.92C28.3813 29.92 28.7013 29.8293 28.936 29.648C29.1707 29.456 29.288 29.1947 29.288 28.864C29.288 28.5867 29.192 28.3573 29 28.176C28.8187 27.9947 28.5893 27.8453 28.312 27.728C28.0453 27.6107 27.6613 27.4773 27.16 27.328C26.4347 27.104 25.8427 26.88 25.384 26.656C24.9253 26.432 24.5307 26.1013 24.2 25.664C23.8693 25.2267 23.704 24.656 23.704 23.952C23.704 22.9067 24.0827 22.0907 24.84 21.504C25.5973 20.9067 26.584 20.608 27.8 20.608C29.0373 20.608 30.0347 20.9067 30.792 21.504C31.5493 22.0907 31.9547 22.912 32.008 23.968H29.048C29.0267 23.6053 28.8933 23.3227 28.648 23.12C28.4027 22.9067 28.088 22.8 27.704 22.8C27.3733 22.8 27.1067 22.8907 26.904 23.072C26.7013 23.2427 26.6 23.4933 26.6 23.824C26.6 24.1867 26.7707 24.4693 27.112 24.672C27.4533 24.8747 27.9867 25.0933 28.712 25.328C29.4373 25.5733 30.024 25.808 30.472 26.032C30.9307 26.256 31.3253 26.5813 31.656 27.008C31.9867 27.4347 32.152 27.984 32.152 28.656C32.152 29.296 31.9867 29.8773 31.656 30.4C31.336 30.9227 30.8667 31.3387 30.248 31.648C29.6293 31.9573 28.8987 32.112 28.056 32.112ZM35.2118 22.144C34.7318 22.144 34.3371 22.0053 34.0278 21.728C33.7291 21.44 33.5798 21.088 33.5798 20.672C33.5798 20.2453 33.7291 19.8933 34.0278 19.616C34.3371 19.328 34.7318 19.184 35.2118 19.184C35.6811 19.184 36.0651 19.328 36.3638 19.616C36.6731 19.8933 36.8278 20.2453 36.8278 20.672C36.8278 21.088 36.6731 21.44 36.3638 21.728C36.0651 22.0053 35.6811 22.144 35.2118 22.144ZM36.5718 23.072V32H33.8358V23.072H36.5718ZM49.9465 22.976C51.0558 22.976 51.9358 23.312 52.5865 23.984C53.2478 24.656 53.5785 25.5893 53.5785 26.784V32H50.8585V27.152C50.8585 26.576 50.7038 26.1333 50.3945 25.824C50.0958 25.504 49.6798 25.344 49.1465 25.344C48.6132 25.344 48.1918 25.504 47.8825 25.824C47.5838 26.1333 47.4345 26.576 47.4345 27.152V32H44.7145V27.152C44.7145 26.576 44.5598 26.1333 44.2505 25.824C43.9518 25.504 43.5358 25.344 43.0025 25.344C42.4692 25.344 42.0478 25.504 41.7385 25.824C41.4398 26.1333 41.2905 26.576 41.2905 27.152V32H38.5545V23.072H41.2905V24.192C41.5678 23.8187 41.9305 23.5253 42.3785 23.312C42.8265 23.088 43.3332 22.976 43.8985 22.976C44.5705 22.976 45.1678 23.12 45.6905 23.408C46.2238 23.696 46.6398 24.1067 46.9385 24.64C47.2478 24.1493 47.6692 23.7493 48.2025 23.44C48.7358 23.1307 49.3172 22.976 49.9465 22.976ZM59.556 32.128C58.6813 32.128 57.892 31.9413 57.188 31.568C56.4947 31.1947 55.9453 30.6613 55.54 29.968C55.1453 29.2747 54.948 28.464 54.948 27.536C54.948 26.6187 55.1507 25.8133 55.556 25.12C55.9613 24.416 56.516 23.8773 57.22 23.504C57.924 23.1307 58.7133 22.944 59.588 22.944C60.4627 22.944 61.252 23.1307 61.956 23.504C62.66 23.8773 63.2147 24.416 63.62 25.12C64.0253 25.8133 64.228 26.6187 64.228 27.536C64.228 28.4533 64.02 29.264 63.604 29.968C63.1987 30.6613 62.6387 31.1947 61.924 31.568C61.22 31.9413 60.4307 32.128 59.556 32.128ZM59.556 29.76C60.0787 29.76 60.5213 29.568 60.884 29.184C61.2573 28.8 61.444 28.2507 61.444 27.536C61.444 26.8213 61.2627 26.272 60.9 25.888C60.548 25.504 60.1107 25.312 59.588 25.312C59.0547 25.312 58.612 25.504 58.26 25.888C57.908 26.2613 57.732 26.8107 57.732 27.536C57.732 28.2507 57.9027 28.8 58.244 29.184C58.596 29.568 59.0333 29.76 59.556 29.76ZM71.1195 22.976C72.1648 22.976 72.9968 23.3173 73.6155 24C74.2448 24.672 74.5595 25.6 74.5595 26.784V32H71.8395V27.152C71.8395 26.5547 71.6848 26.0907 71.3755 25.76C71.0662 25.4293 70.6502 25.264 70.1275 25.264C69.6048 25.264 69.1888 25.4293 68.8795 25.76C68.5702 26.0907 68.4155 26.5547 68.4155 27.152V32H65.6795V23.072H68.4155V24.256C68.6928 23.8613 69.0662 23.552 69.5355 23.328C70.0048 23.0933 70.5328 22.976 71.1195 22.976ZM83.9154 32.112C83.094 32.112 82.358 31.9787 81.7074 31.712C81.0567 31.4453 80.534 31.0507 80.1394 30.528C79.7554 30.0053 79.5527 29.376 79.5314 28.64H82.4434C82.486 29.056 82.63 29.376 82.8754 29.6C83.1207 29.8133 83.4407 29.92 83.8354 29.92C84.2407 29.92 84.5607 29.8293 84.7954 29.648C85.03 29.456 85.1474 29.1947 85.1474 28.864C85.1474 28.5867 85.0514 28.3573 84.8594 28.176C84.678 27.9947 84.4487 27.8453 84.1714 27.728C83.9047 27.6107 83.5207 27.4773 83.0194 27.328C82.294 27.104 81.702 26.88 81.2434 26.656C80.7847 26.432 80.39 26.1013 80.0594 25.664C79.7287 25.2267 79.5634 24.656 79.5634 23.952C79.5634 22.9067 79.942 22.0907 80.6994 21.504C81.4567 20.9067 82.4434 20.608 83.6594 20.608C84.8967 20.608 85.894 20.9067 86.6514 21.504C87.4087 22.0907 87.814 22.912 87.8674 23.968H84.9074C84.886 23.6053 84.7527 23.3227 84.5074 23.12C84.262 22.9067 83.9474 22.8 83.5634 22.8C83.2327 22.8 82.966 22.8907 82.7634 23.072C82.5607 23.2427 82.4594 23.4933 82.4594 23.824C82.4594 24.1867 82.63 24.4693 82.9714 24.672C83.3127 24.8747 83.846 25.0933 84.5714 25.328C85.2967 25.5733 85.8834 25.808 86.3314 26.032C86.79 26.256 87.1847 26.5813 87.5154 27.008C87.846 27.4347 88.0114 27.984 88.0114 28.656C88.0114 29.296 87.846 29.8773 87.5154 30.4C87.1954 30.9227 86.726 31.3387 86.1074 31.648C85.4887 31.9573 84.758 32.112 83.9154 32.112ZM102.511 23.072L100.095 32H97.0711L95.6631 26.208L94.2071 32H91.1991L88.7671 23.072H91.5031L92.7671 29.456L94.2711 23.072H97.1671L98.6871 29.424L99.9351 23.072H102.511ZM111.97 27.392C111.97 27.648 111.955 27.9147 111.923 28.192H105.731C105.773 28.7467 105.949 29.1733 106.259 29.472C106.579 29.76 106.968 29.904 107.427 29.904C108.109 29.904 108.584 29.616 108.851 29.04H111.763C111.613 29.6267 111.341 30.1547 110.947 30.624C110.563 31.0933 110.077 31.4613 109.491 31.728C108.904 31.9947 108.248 32.128 107.523 32.128C106.648 32.128 105.869 31.9413 105.187 31.568C104.504 31.1947 103.971 30.6613 103.587 29.968C103.203 29.2747 103.011 28.464 103.011 27.536C103.011 26.608 103.197 25.7973 103.571 25.104C103.955 24.4107 104.488 23.8773 105.171 23.504C105.853 23.1307 106.637 22.944 107.523 22.944C108.387 22.944 109.155 23.1253 109.827 23.488C110.499 23.8507 111.021 24.368 111.395 25.04C111.779 25.712 111.97 26.496 111.97 27.392ZM109.171 26.672C109.171 26.2027 109.011 25.8293 108.691 25.552C108.371 25.2747 107.971 25.136 107.491 25.136C107.032 25.136 106.643 25.2693 106.323 25.536C106.013 25.8027 105.821 26.1813 105.747 26.672H109.171ZM121.83 27.392C121.83 27.648 121.814 27.9147 121.782 28.192H115.59C115.633 28.7467 115.809 29.1733 116.118 29.472C116.438 29.76 116.827 29.904 117.286 29.904C117.969 29.904 118.443 29.616 118.71 29.04H121.622C121.473 29.6267 121.201 30.1547 120.806 30.624C120.422 31.0933 119.937 31.4613 119.35 31.728C118.763 31.9947 118.107 32.128 117.382 32.128C116.507 32.128 115.729 31.9413 115.046 31.568C114.363 31.1947 113.83 30.6613 113.446 29.968C113.062 29.2747 112.87 28.464 112.87 27.536C112.87 26.608 113.057 25.7973 113.43 25.104C113.814 24.4107 114.347 23.8773 115.03 23.504C115.713 23.1307 116.497 22.944 117.382 22.944C118.246 22.944 119.014 23.1253 119.686 23.488C120.358 23.8507 120.881 24.368 121.254 25.04C121.638 25.712 121.83 26.496 121.83 27.392ZM119.03 26.672C119.03 26.2027 118.87 25.8293 118.55 25.552C118.23 25.2747 117.83 25.136 117.35 25.136C116.891 25.136 116.502 25.2693 116.182 25.536C115.873 25.8027 115.681 26.1813 115.606 26.672H119.03ZM122.729 27.52C122.729 26.6027 122.9 25.7973 123.241 25.104C123.593 24.4107 124.068 23.8773 124.665 23.504C125.263 23.1307 125.929 22.944 126.665 22.944C127.252 22.944 127.785 23.0667 128.265 23.312C128.756 23.5573 129.14 23.888 129.417 24.304V20.16H132.153V32H129.417V30.72C129.161 31.1467 128.793 31.488 128.313 31.744C127.844 32 127.295 32.128 126.665 32.128C125.929 32.128 125.263 31.9413 124.665 31.568C124.068 31.184 123.593 30.6453 123.241 29.952C122.9 29.248 122.729 28.4373 122.729 27.52ZM129.417 27.536C129.417 26.8533 129.225 26.3147 128.841 25.92C128.468 25.5253 128.009 25.328 127.465 25.328C126.921 25.328 126.457 25.5253 126.073 25.92C125.7 26.304 125.513 26.8373 125.513 27.52C125.513 28.2027 125.7 28.7467 126.073 29.152C126.457 29.5467 126.921 29.744 127.465 29.744C128.009 29.744 128.468 29.5467 128.841 29.152C129.225 28.7573 129.417 28.2187 129.417 27.536Z" fill="white"/>
</svg>
